<mxfile host="Electron" modified="2024-06-20T04:07:43.333Z" agent="Mozilla/5.0 (X11; Linux x86_64) AppleWebKit/537.36 (KHTML, like Gecko) draw.io/24.4.8 Chrome/124.0.6367.207 Electron/30.0.6 Safari/537.36" etag="ZWDeRfMSxhgCHdDVU0yw" version="24.4.8" type="device">
  <diagram name="Page-1" id="QMbEzr3JnncttfPiCVSr">
    <mxGraphModel dx="1175" dy="1141" grid="1" gridSize="10" guides="1" tooltips="1" connect="1" arrows="1" fold="1" page="1" pageScale="1" pageWidth="1700" pageHeight="1100" math="0" shadow="0">
      <root>
        <mxCell id="0" />
        <mxCell id="1" parent="0" />
        <mxCell id="9gSCe2SLMVzGHGJYeQ_z-3" value="Historic Files" style="swimlane;whiteSpace=wrap;html=1;" vertex="1" parent="1">
          <mxGeometry x="40" y="240" width="178" height="298" as="geometry" />
        </mxCell>
        <mxCell id="9gSCe2SLMVzGHGJYeQ_z-4" value="hired_employees.csv" style="html=1;verticalLabelPosition=bottom;align=center;labelBackgroundColor=#ffffff;verticalAlign=top;strokeWidth=2;strokeColor=#0080F0;shadow=0;dashed=0;shape=mxgraph.ios7.icons.document;" vertex="1" parent="9gSCe2SLMVzGHGJYeQ_z-3">
          <mxGeometry x="50" y="50" width="21" height="30" as="geometry" />
        </mxCell>
        <mxCell id="9gSCe2SLMVzGHGJYeQ_z-5" value="departments.csv" style="html=1;verticalLabelPosition=bottom;align=center;labelBackgroundColor=#ffffff;verticalAlign=top;strokeWidth=2;strokeColor=#0080F0;shadow=0;dashed=0;shape=mxgraph.ios7.icons.document;" vertex="1" parent="9gSCe2SLMVzGHGJYeQ_z-3">
          <mxGeometry x="50" y="110" width="21" height="30" as="geometry" />
        </mxCell>
        <mxCell id="9gSCe2SLMVzGHGJYeQ_z-6" value="jobs.csv" style="html=1;verticalLabelPosition=bottom;align=center;labelBackgroundColor=#ffffff;verticalAlign=top;strokeWidth=2;strokeColor=#0080F0;shadow=0;dashed=0;shape=mxgraph.ios7.icons.document;" vertex="1" parent="9gSCe2SLMVzGHGJYeQ_z-3">
          <mxGeometry x="50" y="180" width="21" height="30" as="geometry" />
        </mxCell>
        <mxCell id="9gSCe2SLMVzGHGJYeQ_z-8" value="" style="sketch=0;points=[[0,0,0],[0.25,0,0],[0.5,0,0],[0.75,0,0],[1,0,0],[0,1,0],[0.25,1,0],[0.5,1,0],[0.75,1,0],[1,1,0],[0,0.25,0],[0,0.5,0],[0,0.75,0],[1,0.25,0],[1,0.5,0],[1,0.75,0]];outlineConnect=0;fontColor=#232F3E;fillColor=#7AA116;strokeColor=#ffffff;dashed=0;verticalLabelPosition=bottom;verticalAlign=top;align=center;html=1;fontSize=12;fontStyle=0;aspect=fixed;shape=mxgraph.aws4.resourceIcon;resIcon=mxgraph.aws4.s3;" vertex="1" parent="9gSCe2SLMVzGHGJYeQ_z-3">
          <mxGeometry x="100" y="220" width="78" height="78" as="geometry" />
        </mxCell>
        <mxCell id="9gSCe2SLMVzGHGJYeQ_z-12" value="" style="shape=flexArrow;endArrow=classic;html=1;rounded=0;width=46.74418604651163;endSize=10.704651162790698;" edge="1" parent="1">
          <mxGeometry width="50" height="50" relative="1" as="geometry">
            <mxPoint x="230" y="360" as="sourcePoint" />
            <mxPoint x="340" y="360" as="targetPoint" />
          </mxGeometry>
        </mxCell>
        <mxCell id="9gSCe2SLMVzGHGJYeQ_z-13" value="1. Load Historical&lt;br&gt;data" style="edgeLabel;html=1;align=center;verticalAlign=middle;resizable=0;points=[];" vertex="1" connectable="0" parent="9gSCe2SLMVzGHGJYeQ_z-12">
          <mxGeometry x="-0.3" y="-2" relative="1" as="geometry">
            <mxPoint x="11" y="-3" as="offset" />
          </mxGeometry>
        </mxCell>
        <mxCell id="9gSCe2SLMVzGHGJYeQ_z-16" value="" style="outlineConnect=0;dashed=0;verticalLabelPosition=bottom;verticalAlign=top;align=center;html=1;shape=mxgraph.aws3.management_console;fillColor=#D2D3D3;gradientColor=none;" vertex="1" parent="1">
          <mxGeometry x="77" y="595" width="63" height="63" as="geometry" />
        </mxCell>
        <mxCell id="9gSCe2SLMVzGHGJYeQ_z-21" value="VPC" style="points=[[0,0],[0.25,0],[0.5,0],[0.75,0],[1,0],[1,0.25],[1,0.5],[1,0.75],[1,1],[0.75,1],[0.5,1],[0.25,1],[0,1],[0,0.75],[0,0.5],[0,0.25]];outlineConnect=0;gradientColor=none;html=1;whiteSpace=wrap;fontSize=12;fontStyle=0;container=1;pointerEvents=0;collapsible=0;recursiveResize=0;shape=mxgraph.aws4.group;grIcon=mxgraph.aws4.group_vpc2;strokeColor=#8C4FFF;fillColor=none;verticalAlign=top;align=left;spacingLeft=30;fontColor=#AAB7B8;dashed=0;" vertex="1" parent="1">
          <mxGeometry x="520" y="95" width="480" height="545" as="geometry" />
        </mxCell>
        <mxCell id="9gSCe2SLMVzGHGJYeQ_z-23" value="Private subnet" style="points=[[0,0],[0.25,0],[0.5,0],[0.75,0],[1,0],[1,0.25],[1,0.5],[1,0.75],[1,1],[0.75,1],[0.5,1],[0.25,1],[0,1],[0,0.75],[0,0.5],[0,0.25]];outlineConnect=0;gradientColor=none;html=1;whiteSpace=wrap;fontSize=12;fontStyle=0;container=1;pointerEvents=0;collapsible=0;recursiveResize=0;shape=mxgraph.aws4.group;grIcon=mxgraph.aws4.group_security_group;grStroke=0;strokeColor=#00A4A6;fillColor=#E6F6F7;verticalAlign=top;align=left;spacingLeft=30;fontColor=#147EBA;dashed=0;" vertex="1" parent="9gSCe2SLMVzGHGJYeQ_z-21">
          <mxGeometry x="50" y="95" width="300" height="345" as="geometry" />
        </mxCell>
        <mxCell id="9gSCe2SLMVzGHGJYeQ_z-7" value="Postgresql &lt;br&gt;RDS" style="sketch=0;points=[[0,0,0],[0.25,0,0],[0.5,0,0],[0.75,0,0],[1,0,0],[0,1,0],[0.25,1,0],[0.5,1,0],[0.75,1,0],[1,1,0],[0,0.25,0],[0,0.5,0],[0,0.75,0],[1,0.25,0],[1,0.5,0],[1,0.75,0]];outlineConnect=0;fontColor=#232F3E;fillColor=#C925D1;strokeColor=#ffffff;dashed=0;verticalLabelPosition=bottom;verticalAlign=top;align=center;html=1;fontSize=12;fontStyle=0;aspect=fixed;shape=mxgraph.aws4.resourceIcon;resIcon=mxgraph.aws4.rds;" vertex="1" parent="9gSCe2SLMVzGHGJYeQ_z-23">
          <mxGeometry x="180" y="50" width="78" height="78" as="geometry" />
        </mxCell>
        <mxCell id="9gSCe2SLMVzGHGJYeQ_z-25" style="edgeStyle=orthogonalEdgeStyle;rounded=0;orthogonalLoop=1;jettySize=auto;html=1;" edge="1" parent="9gSCe2SLMVzGHGJYeQ_z-23" source="9gSCe2SLMVzGHGJYeQ_z-10" target="9gSCe2SLMVzGHGJYeQ_z-7">
          <mxGeometry relative="1" as="geometry" />
        </mxCell>
        <mxCell id="9gSCe2SLMVzGHGJYeQ_z-10" value="REST API" style="sketch=0;points=[[0,0,0],[0.25,0,0],[0.5,0,0],[0.75,0,0],[1,0,0],[0,1,0],[0.25,1,0],[0.5,1,0],[0.75,1,0],[1,1,0],[0,0.25,0],[0,0.5,0],[0,0.75,0],[1,0.25,0],[1,0.5,0],[1,0.75,0]];outlineConnect=0;fontColor=#232F3E;fillColor=#ED7100;strokeColor=#ffffff;dashed=0;verticalLabelPosition=bottom;verticalAlign=top;align=center;html=1;fontSize=12;fontStyle=0;aspect=fixed;shape=mxgraph.aws4.resourceIcon;resIcon=mxgraph.aws4.lambda;" vertex="1" parent="9gSCe2SLMVzGHGJYeQ_z-23">
          <mxGeometry x="180" y="190" width="78" height="78" as="geometry" />
        </mxCell>
        <mxCell id="9gSCe2SLMVzGHGJYeQ_z-11" value="APi Gateway" style="sketch=0;points=[[0,0,0],[0.25,0,0],[0.5,0,0],[0.75,0,0],[1,0,0],[0,1,0],[0.25,1,0],[0.5,1,0],[0.75,1,0],[1,1,0],[0,0.25,0],[0,0.5,0],[0,0.75,0],[1,0.25,0],[1,0.5,0],[1,0.75,0]];outlineConnect=0;fontColor=#232F3E;fillColor=#8C4FFF;strokeColor=#ffffff;dashed=0;verticalLabelPosition=bottom;verticalAlign=top;align=center;html=1;fontSize=12;fontStyle=0;aspect=fixed;shape=mxgraph.aws4.resourceIcon;resIcon=mxgraph.aws4.api_gateway;" vertex="1" parent="9gSCe2SLMVzGHGJYeQ_z-21">
          <mxGeometry x="-40" y="285" width="78" height="78" as="geometry" />
        </mxCell>
        <mxCell id="9gSCe2SLMVzGHGJYeQ_z-26" style="edgeStyle=orthogonalEdgeStyle;rounded=0;orthogonalLoop=1;jettySize=auto;html=1;entryX=0;entryY=0.5;entryDx=0;entryDy=0;entryPerimeter=0;" edge="1" parent="9gSCe2SLMVzGHGJYeQ_z-21" source="9gSCe2SLMVzGHGJYeQ_z-11" target="9gSCe2SLMVzGHGJYeQ_z-10">
          <mxGeometry relative="1" as="geometry" />
        </mxCell>
        <mxCell id="9gSCe2SLMVzGHGJYeQ_z-20" value="" style="sketch=0;points=[[0,0,0],[0.25,0,0],[0.5,0,0],[0.75,0,0],[1,0,0],[0,1,0],[0.25,1,0],[0.5,1,0],[0.75,1,0],[1,1,0],[0,0.25,0],[0,0.5,0],[0,0.75,0],[1,0.25,0],[1,0.5,0],[1,0.75,0]];outlineConnect=0;fontColor=#232F3E;fillColor=#8C4FFF;strokeColor=#ffffff;dashed=0;verticalLabelPosition=bottom;verticalAlign=top;align=center;html=1;fontSize=12;fontStyle=0;aspect=fixed;shape=mxgraph.aws4.resourceIcon;resIcon=mxgraph.aws4.glue;" vertex="1" parent="1">
          <mxGeometry x="250" y="213" width="78" height="78" as="geometry" />
        </mxCell>
        <mxCell id="9gSCe2SLMVzGHGJYeQ_z-24" value="Public subnet" style="points=[[0,0],[0.25,0],[0.5,0],[0.75,0],[1,0],[1,0.25],[1,0.5],[1,0.75],[1,1],[0.75,1],[0.5,1],[0.25,1],[0,1],[0,0.75],[0,0.5],[0,0.25]];outlineConnect=0;gradientColor=none;html=1;whiteSpace=wrap;fontSize=12;fontStyle=0;container=1;pointerEvents=0;collapsible=0;recursiveResize=0;shape=mxgraph.aws4.group;grIcon=mxgraph.aws4.group_security_group;grStroke=0;strokeColor=#7AA116;fillColor=#F2F6E8;verticalAlign=top;align=left;spacingLeft=30;fontColor=#248814;dashed=0;" vertex="1" parent="1">
          <mxGeometry x="1050" y="220" width="130" height="130" as="geometry" />
        </mxCell>
      </root>
    </mxGraphModel>
  </diagram>
</mxfile>
